<?xml version="1.0" standalone="no"?>
<!DOCTYPE svg PUBLIC "-//W3C//DTD SVG 20010904//EN"
 "http://www.w3.org/TR/2001/REC-SVG-20010904/DTD/svg10.dtd">
<svg version="1.0" xmlns="http://www.w3.org/2000/svg"
 width="4025.000000pt" height="1416.000000pt" viewBox="0 0 4025.000000 1416.000000"
 preserveAspectRatio="xMidYMid meet">
<g transform="translate(0.000000,1416.000000) scale(0.100000,-0.100000)"
fill="#000000" stroke="none">
<path d="M3787 14154 c-1 -1 -72 -5 -157 -8 -85 -4 -168 -9 -185 -11 -16 -2
-57 -6 -90 -9 -280 -28 -573 -100 -783 -192 -315 -138 -577 -326 -730 -524
-142 -185 -251 -439 -296 -695 -3 -16 -8 -41 -11 -55 -3 -14 -9 -63 -15 -110
-5 -47 -13 -105 -16 -130 -4 -25 -9 -567 -11 -1205 -6 -2137 -10 -2770 -16
-2795 -3 -14 -8 -46 -12 -72 -8 -67 -50 -208 -85 -284 -28 -63 -97 -184 -110
-194 -4 -3 -25 -30 -47 -60 -76 -105 -273 -284 -363 -330 -14 -7 -27 -16 -30
-20 -8 -12 -170 -96 -230 -120 -30 -12 -64 -26 -75 -31 -77 -32 -260 -77 -386
-94 -24 -3 -53 -8 -64 -10 -11 -2 -32 -4 -47 -4 -20 -1 -28 -6 -28 -19 0 -15
18 -24 88 -43 48 -13 89 -24 92 -24 30 -7 169 -53 229 -77 266 -105 414 -185
605 -331 259 -197 403 -437 452 -749 2 -16 6 -43 9 -60 13 -83 16 -457 19
-2013 2 -1529 5 -1750 20 -1863 3 -20 8 -65 11 -100 4 -35 8 -71 10 -80 1 -9
6 -37 10 -62 3 -25 9 -58 11 -75 3 -16 17 -81 31 -144 80 -361 220 -637 429
-847 164 -165 312 -258 599 -375 11 -4 58 -20 105 -34 271 -84 627 -138 990
-151 84 -3 535 -4 567 -2 11 1 28 28 21 33 -2 1 -55 19 -118 40 -329 107 -636
264 -826 422 -288 240 -464 577 -510 973 -3 30 -9 64 -12 75 -5 19 -7 332 -16
2625 -2 525 -6 982 -9 1015 -9 92 -17 166 -22 205 -3 19 -7 55 -10 80 -20 166
-97 433 -167 580 -39 81 -132 239 -147 250 -4 3 -14 15 -22 27 -36 52 -129
149 -203 211 -84 71 -181 142 -193 142 -3 0 -14 6 -22 14 -20 17 -164 92 -261
135 -96 43 -367 132 -490 161 -52 12 -99 27 -105 31 -14 14 6 28 50 34 22 4
67 13 100 22 33 8 68 16 77 18 150 30 441 136 598 217 451 236 694 580 785
1111 7 45 17 114 20 152 4 39 9 81 12 95 4 14 8 504 10 1090 6 1930 11 2704
17 2750 16 112 48 278 65 339 50 176 139 355 235 471 219 264 490 431 951 586
72 24 149 48 172 54 30 7 41 15 39 28 -3 16 -23 17 -255 17 -139 0 -253 -1
-254 -1z"/>
<path d="M35943 14142 c-1 -17 15 -25 100 -52 787 -248 1213 -656 1332 -1275
3 -16 7 -41 10 -54 2 -13 7 -46 10 -75 4 -28 9 -64 12 -81 5 -28 7 -383 17
-2680 2 -517 6 -956 9 -975 2 -19 8 -66 11 -105 8 -79 9 -82 31 -220 64 -381
207 -685 430 -910 112 -113 137 -134 252 -211 183 -122 443 -234 719 -310 92
-24 112 -30 164 -40 58 -12 50 -39 -15 -50 -108 -16 -466 -117 -550 -154 -11
-5 -49 -21 -85 -36 -351 -143 -632 -394 -776 -692 -80 -168 -149 -417 -168
-607 -4 -33 -9 -84 -12 -114 -11 -101 -12 -180 -14 -1931 -1 -960 -6 -1785
-11 -1835 -12 -129 -16 -159 -33 -262 -17 -96 -57 -245 -81 -298 -55 -126 -81
-176 -128 -248 -57 -87 -141 -185 -204 -240 -21 -17 -40 -34 -43 -37 -3 -3
-25 -21 -50 -41 -196 -155 -523 -306 -887 -410 -31 -9 -43 -18 -43 -30 0 -18
15 -19 313 -14 366 5 567 16 737 41 284 42 472 93 690 186 432 186 715 440
879 789 42 89 88 212 95 252 1 7 5 21 9 32 3 11 9 32 12 48 3 15 7 38 10 52 3
14 7 35 9 48 20 111 26 151 31 207 3 36 9 88 12 115 3 28 7 869 9 1870 1 1001
3 1863 5 1916 5 276 73 512 199 700 61 90 161 208 221 259 28 24 57 49 63 55
22 21 152 112 213 148 170 103 440 195 653 222 25 3 54 8 65 10 11 2 32 4 48
4 19 1 27 6 27 19 0 15 -17 24 -87 42 -653 171 -1135 501 -1297 886 -36 86
-72 212 -81 284 -3 25 -8 61 -10 80 -15 108 -17 348 -20 1935 -1 957 -5 1758
-8 1780 -3 22 -8 78 -11 125 -4 47 -8 96 -11 110 -2 14 -6 50 -10 80 -20 195
-84 456 -154 632 -200 503 -564 804 -1155 957 -115 30 -373 77 -461 85 -59 5
-152 15 -215 22 -25 3 -209 7 -410 10 -358 5 -366 5 -367 -14z"/>
<path d="M4949 12026 c-3 -4 -5 -132 -2 -141 2 -7 153 -10 438 -10 l435 0 0
-1092 0 -1093 93 0 92 0 0 1090 c0 718 3 1091 10 1093 6 2 202 3 437 3 l428
-1 0 77 0 77 -965 -1 c-531 0 -965 -1 -966 -2z"/>
<path d="M7108 12017 c-4 -10 -3 -2301 1 -2319 0 -3 37 -7 81 -7 l80 -1 0 541
0 540 45 64 c94 132 222 223 350 250 62 13 168 13 228 0 92 -19 191 -99 231
-187 60 -132 64 -175 64 -692 0 -248 1 -466 1 -483 l1 -33 79 0 c54 0 80 4 83
13 2 6 4 244 2 527 -2 576 -4 604 -70 739 -43 87 -137 187 -212 225 -82 42
-181 64 -280 64 -113 0 -169 -12 -260 -54 -72 -35 -173 -122 -235 -204 l-26
-35 -1 532 0 532 -79 0 c-52 0 -81 -4 -83 -12z"/>
<path d="M11426 12021 c-2 -3 -4 -529 -4 -1168 l1 -1161 91 1 91 2 2 1005 c0
553 4 1006 7 1007 3 2 25 -19 48 -45 24 -26 45 -49 48 -52 3 -3 32 -36 65 -75
33 -38 62 -72 65 -75 3 -3 32 -36 65 -75 33 -38 62 -72 65 -75 6 -5 59 -66
213 -245 33 -38 63 -72 66 -75 3 -3 46 -52 96 -110 49 -58 123 -143 165 -190
41 -47 100 -115 131 -150 31 -36 121 -139 200 -231 79 -91 214 -246 299 -344
85 -99 175 -201 199 -227 l44 -48 72 1 73 1 0 1168 1 1168 -92 -2 -92 -1 0
-1012 c0 -557 -2 -1013 -5 -1013 -3 1 -24 24 -48 53 -23 29 -59 71 -80 94 -20
22 -46 52 -57 65 -116 135 -272 315 -281 323 -6 6 -202 231 -435 500 -233 270
-436 504 -451 520 -14 17 -35 40 -45 51 -60 71 -103 122 -119 140 -11 11 -70
80 -133 152 l-114 131 -74 -1 c-40 0 -75 -3 -77 -7z"/>
<path d="M18309 12003 c11 -16 88 -109 171 -208 84 -99 159 -189 168 -200 40
-47 297 -353 416 -495 l131 -154 0 -626 0 -625 91 -3 91 -3 1 618 c0 340 1
623 1 630 1 6 53 74 117 150 64 76 135 160 158 188 77 93 210 250 216 255 3 3
25 30 50 60 51 63 54 66 145 175 37 44 79 94 94 110 44 51 107 129 115 143 6
10 -15 13 -103 11 l-110 -1 -63 -77 c-34 -42 -65 -78 -68 -81 -3 -3 -62 -72
-131 -155 -68 -82 -133 -160 -144 -172 -11 -12 -96 -115 -190 -227 -93 -113
-173 -205 -176 -205 -3 -1 -48 49 -100 111 -52 61 -112 132 -134 158 -22 26
-134 159 -249 296 -115 137 -216 256 -225 264 -9 8 -28 31 -43 51 l-27 36
-111 2 -111 1 20 -27z"/>
<path d="M23131 10860 l0 -1170 84 0 85 0 0 1168 0 1169 -85 1 -84 2 0 -1170z"/>
<path d="M9309 11256 c-2 -2 -20 -6 -39 -9 -204 -31 -409 -204 -499 -420 -78
-190 -86 -443 -19 -647 87 -266 328 -472 593 -507 227 -30 471 24 644 141 29
20 57 36 62 36 5 0 10 8 10 18 3 44 4 182 2 182 -2 0 -38 -24 -81 -54 -121
-85 -247 -139 -377 -161 -45 -8 -177 -8 -215 0 -14 3 -38 8 -53 10 -82 15
-225 103 -297 181 -121 132 -171 278 -161 470 l1 21 606 -1 606 -1 -6 85 c-5
93 -8 106 -32 189 -47 165 -180 324 -334 400 -47 23 -116 48 -155 56 -63 13
-245 21 -256 11z m276 -186 c141 -49 226 -145 284 -317 38 -112 92 -100 -469
-101 -562 -1 -508 -13 -464 104 32 86 56 126 113 187 40 43 143 115 174 121 7
2 19 6 27 9 80 30 244 29 335 -3z"/>
<path d="M14475 11245 c-195 -44 -363 -180 -459 -374 -46 -92 -54 -117 -77
-249 -11 -60 -7 -252 5 -331 12 -69 65 -202 109 -273 141 -226 359 -349 626
-352 115 -1 200 9 272 31 30 9 59 17 66 19 25 5 161 74 215 111 l58 38 0 93
c0 72 -3 91 -12 85 -7 -4 -40 -26 -73 -49 -165 -114 -312 -163 -490 -164 -145
0 -261 40 -380 131 -52 40 -65 53 -123 128 -70 92 -108 211 -107 341 l0 85
600 0 c330 0 603 4 606 8 11 15 -2 148 -22 227 -40 157 -124 286 -244 375 -22
16 -42 32 -45 36 -15 16 -144 69 -201 82 -84 18 -246 20 -324 2z m324 -171
c80 -26 168 -90 212 -154 43 -61 86 -161 98 -226 l8 -42 -493 0 -493 0 6 31
c11 62 63 173 107 228 68 87 202 166 306 182 59 8 198 -2 249 -19z"/>
<path d="M20555 11245 c-291 -64 -532 -305 -590 -591 -30 -149 -22 -333 21
-462 74 -220 249 -403 459 -480 163 -60 379 -64 540 -10 102 34 193 88 272
162 179 167 262 377 250 631 -3 61 -8 126 -12 145 -19 103 -93 264 -152 331
-126 144 -227 212 -383 259 -93 28 -309 36 -405 15z m340 -169 c211 -62 369
-233 422 -455 20 -88 20 -248 -2 -331 -54 -209 -196 -365 -395 -436 -63 -22
-244 -30 -322 -14 -205 43 -373 198 -444 410 -25 75 -28 99 -28 210 0 133 13
197 60 297 79 167 256 304 424 330 19 3 36 6 38 8 11 10 197 -5 247 -19z"/>
<path d="M22500 11254 c-154 -57 -280 -164 -404 -346 -45 -66 -56 -77 -57 -57
0 13 -1 104 -1 202 l0 177 -84 0 -84 0 0 -769 0 -769 83 2 82 1 1 482 1 482
44 70 c143 228 307 365 440 366 70 0 122 -23 218 -95 41 -30 80 -59 87 -65 7
-5 15 -7 17 -5 16 20 87 141 87 148 0 15 -150 121 -209 148 -55 26 -184 42
-221 28z"/>
<path d="M15439 11208 c14 -35 140 -339 155 -373 20 -44 27 -61 270 -640 l223
-530 39 0 c37 0 39 2 57 50 10 28 24 64 31 80 7 17 43 111 80 210 37 99 70
187 74 195 5 8 66 169 138 356 71 188 132 340 136 338 4 -3 12 -19 17 -37 5
-18 42 -115 81 -217 39 -102 72 -189 74 -195 4 -15 17 -48 27 -70 4 -11 54
-141 110 -290 55 -148 114 -305 131 -347 l29 -78 40 3 41 2 68 160 c37 88 111
264 165 390 53 127 103 244 110 260 38 84 308 723 312 738 5 16 -2 18 -77 15
l-83 -3 -243 -570 c-134 -313 -254 -592 -267 -618 l-23 -49 -33 89 c-18 48
-39 102 -46 118 -7 17 -16 41 -20 55 -3 14 -10 34 -15 45 -5 11 -86 225 -179
475 l-170 455 -48 3 -48 2 -78 -207 c-78 -207 -122 -320 -138 -358 -5 -11 -58
-150 -119 -310 -61 -159 -118 -307 -128 -329 l-18 -38 -64 153 c-35 85 -74
177 -87 206 -12 28 -23 55 -23 58 0 4 -7 21 -15 38 -19 42 -140 329 -246 585
l-84 202 -82 0 c-81 0 -82 0 -74 -22z"/>
<path d="M24134 11202 c-17 -15 -44 -38 -60 -52 -105 -90 -536 -460 -570 -489
-66 -59 -155 -134 -171 -146 -18 -13 -44 10 553 -487 l402 -333 110 0 c109 0
120 4 83 31 -16 12 -386 318 -431 357 -14 12 -90 76 -170 142 -80 66 -150 124
-156 130 -6 5 -48 39 -92 75 -44 36 -81 67 -81 70 -1 3 54 52 121 110 119 102
547 474 658 572 l55 48 -110 0 c-105 -1 -111 -2 -141 -28z"/>
<path d="M12495 8909 c-34 -10 -77 -44 -93 -76 -16 -30 -21 -110 -10 -151 24
-87 92 -112 318 -118 74 -2 137 -3 140 -4 3 0 5 -209 5 -465 l0 -465 -65 63
c-35 34 -67 65 -70 68 -17 19 -135 91 -190 116 -154 72 -282 98 -480 97 -269
0 -448 -52 -659 -192 -264 -174 -446 -465 -495 -787 -13 -90 -14 -333 -1 -410
47 -285 167 -503 381 -695 149 -134 348 -224 544 -247 363 -41 695 64 928 294
40 40 74 73 75 73 1 0 2 -53 3 -117 0 -65 3 -131 7 -146 13 -49 39 -53 339
-52 241 1 277 3 310 19 53 25 80 74 84 149 6 129 -54 176 -236 182 -47 2 -88
3 -92 4 -5 1 -8 628 -8 1395 0 900 -4 1404 -10 1421 -19 51 -50 55 -387 54
-169 0 -321 -5 -338 -10z m-240 -1313 c297 -67 502 -262 581 -556 26 -97 24
-338 -3 -440 -55 -199 -174 -359 -345 -462 -127 -78 -249 -108 -418 -103 -135
4 -156 7 -235 29 -240 70 -446 284 -500 520 -23 100 -26 127 -27 216 0 101 6
148 33 255 71 282 308 502 584 542 22 3 42 7 44 9 7 6 253 -3 286 -10z"/>
<path d="M29595 8790 c-83 -20 -104 -41 -125 -120 -19 -70 -17 -238 3 -277 31
-58 70 -68 257 -68 203 1 233 32 232 242 -1 182 -44 225 -232 228 -58 1 -118
-1 -135 -5z"/>
<path d="M6477 8694 c-1 -1 -47 -5 -101 -8 -394 -28 -758 -251 -1004 -615
-177 -262 -255 -545 -256 -921 0 -295 51 -535 164 -762 209 -422 586 -694
1043 -754 127 -17 380 -7 505 20 200 43 382 124 589 263 191 127 253 219 223
329 -16 56 -74 110 -127 119 -21 4 -42 8 -48 9 -20 5 -82 -28 -195 -103 -270
-182 -461 -251 -710 -257 -111 -2 -184 5 -289 30 -108 25 -246 101 -345 189
-162 144 -298 399 -331 618 -4 24 -8 46 -10 49 -15 25 -25 334 -13 445 14 139
19 171 43 263 110 417 399 694 772 739 96 12 254 6 328 -11 108 -26 225 -87
300 -158 90 -84 126 -149 165 -299 54 -211 103 -270 224 -275 86 -3 141 22
163 73 18 40 18 49 9 643 -4 232 -13 279 -60 313 -25 18 -44 21 -111 21 -54 0
-90 -6 -112 -17 -32 -17 -73 -66 -73 -87 0 -14 -1 -14 -130 34 -100 37 -258
81 -325 91 -81 12 -280 25 -288 19z"/>
<path d="M21388 8610 c-47 -14 -87 -43 -100 -74 -7 -17 -13 -63 -13 -103 0
-132 57 -169 266 -173 l27 0 0 -1105 c0 -608 -3 -1105 -7 -1106 -3 0 -37 -2
-76 -4 -95 -5 -148 -22 -181 -56 -23 -24 -27 -37 -30 -101 -4 -86 19 -139 75
-172 35 -20 62 -21 961 -28 112 -1 300 8 350 16 14 3 44 7 68 10 72 9 212 44
292 73 239 85 442 257 591 499 81 132 151 305 185 456 21 95 26 124 39 243 7
60 7 281 0 355 -25 276 -101 517 -224 707 -205 317 -494 499 -891 559 -63 9
-1299 13 -1332 4z m1032 -345 c359 -23 632 -134 781 -319 66 -81 60 -72 100
-151 58 -111 100 -257 116 -400 10 -91 10 -393 0 -470 -14 -100 -15 -108 -26
-160 -76 -339 -274 -561 -591 -662 -166 -53 -285 -67 -550 -67 -135 1 -256 3
-270 6 l-25 5 0 1106 c0 1002 1 1106 16 1110 9 2 60 5 115 6 54 1 100 3 101 4
3 3 126 -1 233 -8z"/>
<path d="M18711 7548 c0 -282 0 -529 0 -549 l-1 -36 -540 0 c-297 0 -543 -3
-547 -6 -5 -6 -8 -205 -4 -284 1 -10 121 -13 547 -15 l546 -3 0 -542 1 -543
152 0 152 0 1 518 c0 284 1 529 1 545 l1 27 548 0 547 0 0 145 c0 99 -4 148
-12 153 -6 4 -252 7 -547 6 -484 -1 -536 1 -537 15 0 9 -1 256 -1 549 l-1 532
-153 0 -153 0 0 -512z"/>
<path d="M14875 8025 c-579 -68 -995 -454 -1072 -995 -10 -70 -10 -358 -1
-427 35 -237 126 -434 279 -596 127 -136 262 -227 430 -288 363 -133 859 -107
1324 68 234 89 375 174 415 253 61 120 -12 249 -143 250 -58 0 -134 -26 -358
-123 -247 -107 -389 -152 -544 -172 -53 -7 -263 -7 -305 0 -14 2 -41 6 -60 9
-167 25 -360 133 -460 259 -82 103 -148 278 -153 407 l-2 54 930 2 c639 1 947
5 983 13 113 23 144 76 144 239 -1 56 -3 105 -5 110 -3 4 -8 31 -11 60 -3 30
-9 58 -12 63 -3 5 -8 22 -10 37 -3 15 -18 58 -34 95 -130 310 -426 562 -759
647 -76 19 -97 23 -181 35 -80 12 -292 12 -395 0z m414 -354 c242 -60 440
-243 509 -471 11 -36 23 -84 27 -107 l7 -43 -801 0 -800 0 15 53 c38 131 110
254 203 348 142 143 295 214 521 242 69 8 245 -4 319 -22z"/>
<path d="M25335 8024 c-318 -40 -552 -150 -755 -353 -151 -151 -258 -350 -299
-551 -6 -30 -13 -68 -17 -85 -11 -51 -13 -346 -3 -415 80 -552 472 -917 1049
-977 313 -32 731 33 1040 164 294 124 384 201 383 329 -1 89 -70 154 -162 154
-60 0 -138 -27 -376 -129 -182 -79 -371 -142 -465 -156 -25 -4 -58 -9 -75 -12
-39 -6 -217 -6 -275 1 -222 25 -384 101 -511 238 -107 116 -176 288 -183 458
l-1 35 920 1 c876 0 968 3 1041 25 65 20 94 82 98 207 8 317 -151 626 -432
837 -77 58 -223 138 -297 164 -60 20 -171 50 -215 56 -25 4 -58 9 -75 12 -65
10 -295 9 -390 -3z m352 -338 c10 -3 34 -8 53 -11 56 -10 160 -55 230 -100
121 -78 215 -191 271 -324 27 -65 56 -187 47 -196 -3 -3 -363 -4 -800 -3
l-796 3 29 84 c104 306 358 512 679 548 25 3 46 7 48 8 6 5 221 -3 239 -9z"/>
<path d="M27868 8036 c-1 -2 -50 -6 -108 -10 -135 -8 -167 -13 -270 -42 -240
-69 -404 -209 -470 -399 -28 -81 -30 -96 -34 -205 -8 -211 45 -361 171 -487
103 -103 292 -186 476 -209 23 -3 49 -7 57 -10 8 -3 114 -7 235 -10 257 -5
299 -8 382 -27 171 -40 244 -134 239 -309 -2 -61 -8 -87 -31 -132 -55 -109
-171 -188 -320 -220 -67 -15 -304 -16 -362 -3 -88 21 -160 45 -231 78 -152 70
-230 146 -304 294 -77 156 -121 189 -215 163 -51 -13 -81 -43 -94 -92 -12 -44
-16 -561 -5 -629 8 -50 49 -113 85 -132 61 -31 137 -13 247 60 l52 34 168 -38
c181 -42 206 -47 299 -57 33 -3 71 -8 85 -10 39 -6 219 -6 280 1 79 9 242 51
297 77 206 94 350 255 398 444 24 96 27 124 26 219 -2 107 -4 122 -25 204 -66
259 -276 411 -629 456 -18 2 -50 6 -72 9 -22 3 -107 7 -190 11 -474 18 -618
64 -661 212 -56 192 69 372 296 426 36 8 74 15 85 16 169 4 276 -10 378 -49
122 -46 239 -143 382 -317 91 -110 164 -138 236 -90 61 40 71 94 71 363 -1
241 -8 295 -45 344 -54 72 -153 67 -271 -13 -21 -15 -48 -27 -60 -27 -12 0
-77 16 -145 35 -150 44 -204 55 -301 61 -41 3 -80 7 -87 9 -6 2 -13 2 -15 1z"/>
<path d="M9038 8025 c-2 -1 -39 -6 -82 -9 -43 -4 -82 -8 -85 -10 -3 -2 -24 -7
-46 -10 -105 -17 -255 -70 -365 -129 -195 -105 -389 -304 -483 -492 -25 -51
-74 -186 -83 -227 -27 -136 -32 -188 -32 -320 1 -181 19 -287 76 -443 127
-347 462 -628 847 -711 168 -37 403 -50 560 -31 281 34 509 129 700 291 61 52
138 132 164 170 8 12 18 23 21 26 15 13 80 122 109 184 33 72 76 206 85 272
44 299 16 545 -87 764 -109 230 -316 435 -552 545 -122 57 -245 92 -420 121
-41 6 -321 14 -327 9z m267 -349 c280 -40 535 -236 643 -493 71 -168 85 -406
36 -597 -68 -262 -288 -488 -552 -566 -98 -28 -147 -35 -277 -35 -173 0 -278
22 -405 82 -194 93 -338 254 -411 463 -70 197 -62 464 18 652 80 188 233 345
420 429 60 28 192 64 258 71 44 5 224 1 270 -6z"/>
<path d="M34378 8020 c-161 -27 -345 -122 -510 -263 l-58 -49 0 91 c0 171 -3
172 -330 173 -243 0 -252 -1 -298 -24 -62 -30 -91 -84 -85 -159 7 -114 67
-156 234 -166 l104 -6 -1 -781 c-1 -429 -2 -783 -3 -786 0 -3 -43 -6 -95 -7
-108 -3 -179 -25 -208 -63 -38 -51 -33 -179 9 -227 10 -11 34 -28 53 -38 32
-17 67 -19 390 -20 372 -1 460 4 508 29 46 24 69 101 57 189 -14 96 -73 128
-244 131 l-86 2 -2 550 c-2 515 -1 555 16 617 54 187 206 340 409 410 147 50
331 43 458 -20 118 -57 218 -201 239 -343 3 -20 8 -47 10 -60 4 -19 8 -898 5
-1115 l0 -40 -77 -1 c-136 -1 -190 -17 -227 -67 -29 -39 -30 -178 -3 -219 39
-57 68 -61 452 -62 376 -2 460 3 509 31 46 27 76 93 71 159 -9 119 -68 156
-249 159 l-91 1 -2 64 c-2 36 -4 331 -6 655 l-3 590 -26 95 c-87 318 -282 508
-580 565 -84 16 -259 18 -340 5z"/>
<path d="M29299 7969 c-94 -10 -146 -62 -153 -152 -8 -88 42 -164 121 -186 21
-6 90 -11 153 -11 l115 0 -1 -782 c-1 -431 -2 -785 -3 -788 0 -3 -58 -5 -129
-6 -161 -1 -212 -19 -242 -86 -32 -72 -21 -166 25 -212 48 -48 69 -50 550 -50
408 -1 454 1 497 17 59 23 80 63 81 157 0 83 -22 127 -77 154 -32 16 -64 19
-180 21 l-141 1 -2 927 c-2 1028 3 964 -67 987 -38 12 -452 19 -547 9z"/>
<path d="M31298 7975 c-2 -1 -29 -5 -61 -9 -75 -8 -95 -12 -202 -48 -346 -114
-610 -413 -692 -783 -19 -85 -26 -343 -12 -438 70 -479 430 -832 909 -892 128
-17 352 -3 427 26 16 6 28 9 28 8 0 -6 87 27 140 54 98 48 159 93 245 180 27
26 50 44 53 40 9 -16 -2 -441 -12 -508 -44 -271 -147 -404 -362 -468 -46 -14
-109 -28 -139 -32 -61 -7 -229 -7 -275 -1 -17 3 -53 7 -80 11 -28 3 -70 8 -95
11 -85 11 -177 6 -212 -11 -101 -52 -142 -153 -99 -250 46 -105 199 -149 511
-149 231 0 394 22 558 78 187 64 351 180 444 314 57 83 104 208 114 307 3 22
7 54 11 70 3 17 7 502 9 1079 2 576 4 1050 6 1051 2 2 44 5 93 9 122 7 172 23
206 66 48 59 44 175 -7 231 -40 45 -74 50 -334 51 -338 1 -334 3 -334 -174 0
-49 -5 -88 -9 -88 -5 0 -30 15 -56 34 -201 147 -421 225 -648 231 -67 2 -123
2 -125 0z m302 -385 c277 -50 494 -263 550 -540 56 -274 -30 -543 -227 -705
-62 -51 -184 -119 -235 -131 -187 -45 -320 -47 -469 -9 -166 43 -310 148 -404
294 -80 125 -110 252 -103 434 4 102 10 136 35 208 87 251 308 428 567 455 33
4 62 7 63 8 8 7 167 -3 223 -14z"/>
<path d="M28299 4628 c-1 -17 -1 -2331 0 -2341 1 -4 180 -7 399 -6 451 1 515
6 645 51 206 70 348 201 408 378 29 84 35 255 14 350 -46 199 -185 340 -409
415 -43 15 -87 27 -97 28 -11 1 -19 2 -19 3 0 2 31 23 70 49 212 141 302 364
250 620 -40 195 -202 359 -415 420 -122 35 -213 43 -531 44 -252 2 -314 0
-315 -11z m636 -152 c144 -30 213 -58 292 -117 98 -74 152 -207 147 -363 -8
-201 -109 -334 -307 -401 -85 -29 -204 -42 -394 -44 l-193 -2 0 472 0 471 213
-5 c116 -3 226 -8 242 -11z m175 -1090 c161 -28 273 -78 351 -156 87 -87 121
-179 120 -326 -1 -213 -126 -373 -341 -438 -99 -29 -176 -35 -470 -36 l-290
-1 0 487 0 486 298 -5 c163 -3 313 -8 332 -11z"/>
<path d="M30551 3844 c-35 -8 -77 -21 -94 -29 -17 -8 -34 -15 -40 -15 -18 0
-142 -89 -191 -137 -91 -90 -152 -195 -190 -325 -77 -266 -35 -563 108 -762
112 -155 238 -248 408 -297 141 -41 368 -33 523 17 125 42 294 139 296 171 3
69 1 154 -3 159 -3 3 -34 -15 -69 -39 -101 -69 -167 -103 -269 -138 -86 -29
-107 -32 -220 -33 -103 -1 -137 3 -195 21 -189 60 -347 212 -412 397 -21 57
-26 91 -27 176 l-1 105 590 2 c325 2 600 3 613 3 23 0 23 2 18 78 -23 315
-205 552 -491 637 -78 23 -267 28 -354 9z m344 -174 c65 -24 136 -72 174 -116
51 -59 131 -240 131 -298 0 -3 -225 -6 -500 -6 -275 0 -500 4 -500 8 0 5 7 33
16 63 52 177 185 311 358 360 86 25 239 19 321 -11z"/>
<path d="M32203 3844 c-171 -36 -330 -152 -430 -312 -91 -146 -124 -279 -119
-482 4 -140 6 -158 32 -250 63 -222 232 -411 446 -497 194 -79 486 -65 693 32
82 38 195 112 196 127 1 18 1 128 0 155 -1 22 -3 21 -47 -12 -337 -257 -734
-257 -981 2 -115 120 -166 245 -167 408 l-1 100 490 2 c270 1 545 2 613 3
l123 0 -2 48 c-6 160 -67 338 -151 438 -94 113 -194 181 -333 226 -76 25 -271
31 -362 12z m302 -163 c133 -36 219 -110 284 -243 22 -46 43 -94 45 -108 2
-14 7 -37 11 -52 l7 -28 -501 0 c-413 0 -501 2 -501 13 0 24 36 120 66 177 59
110 188 211 315 244 72 19 200 17 274 -3z"/>
<path d="M33997 3841 c-137 -45 -249 -151 -430 -405 -11 -16 -13 8 -12 170 0
104 -1 197 -4 207 -3 14 -15 17 -85 17 l-81 0 2 -738 c1 -405 2 -754 2 -774
l1 -38 74 0 c83 0 110 6 98 24 -4 6 -7 223 -8 483 l-1 471 60 89 c170 253 323
369 465 349 55 -7 146 -58 227 -125 67 -56 55 -60 120 48 21 35 34 66 28 70
-5 3 -33 25 -63 48 -30 23 -86 58 -123 78 -88 46 -181 55 -270 26z"/>
<path d="M35028 3855 c-2 -2 -19 -5 -38 -8 -136 -20 -284 -130 -342 -253 -78
-167 -24 -358 131 -463 62 -43 189 -107 256 -130 76 -26 260 -120 298 -151 81
-69 106 -188 57 -282 -97 -188 -377 -207 -721 -50 l-64 30 -3 -71 c-2 -38 -1
-76 2 -82 7 -19 164 -92 251 -117 63 -17 106 -22 205 -23 144 0 210 16 303 72
167 101 241 257 206 433 -33 165 -138 260 -409 371 -69 28 -159 67 -200 87
-199 96 -247 252 -120 386 136 144 373 138 628 -16 l63 -38 -3 92 -3 92 -52
27 c-53 28 -152 67 -188 75 -87 19 -129 24 -187 23 -37 -1 -69 -3 -70 -4z"/>
</g>
</svg>
